{"title":"Skew 2011 BRRip XviD-F0RFUN","uid":7326622,"size":736373959,"categoryP":"video","categoryS":"movies","magnet":"?xt=urn:btih:364779f3e27bd380593c9cf4f6c724fe5c6cd51a&amp;dn=Skew+2011+BRRip+XviD-F0RFUN&amp;tr=udp%3A%2F%2Ftracker.openbittorrent.com%3A80&amp;tr=udp%3A%2F%2Fopen.demonii.com%3A1337&amp;tr=udp%3A%2F%2Ftracker.coppersurfer.tk%3A6969&amp;tr=udp%3A%2F%2Fexodus.desync.com%3A6969","seeders":2,"leechers":2,"uploader":"neon","files":-1,"time":1338775821,"description":"When Simon, Rich, and Eva head out on an eagerly anticipated road trip, they bring along a video camera to record their journey. What starts out as a carefree adventure slowly becomes a descent into the ominous as unexplained events threaten to disrupt the balance between the three close friends. Each one of them must struggle with personal demons and paranoia as friendships are tested and gruesome realities are revealed...and recorded. \n\n\n &lt;a href=&quot; http://www.imdb.com/title/tt1808477/&quot; rel=&quot;nofollow&quot; target=&quot;_NEW&quot;&gt; http://www.imdb.com/title/tt1808477/&lt;/a&gt;\n \nGeneral\n Complete name : Skew.2011.BRRip.XviD-F0RFUN.avi\n Format : AVI\n Format/Info : Audio Video Interleave\n File size : 702 MiB\n Duration : 1h 22mn\n Overall bit rate mode : Variable\n Overall bit rate : 1 190 Kbps\n Writing application : VirtualDubMod 1.5.10.3 | www.virtualdub-fr.org || (build 2550/release)\n Writing library : VirtualDubMod build 2550/release\n \nVideo\n ID : 0\n Format : MPEG-4 Visual\n Format profile : Advanced Simple@L5\n Format settings, BVOP : 1\n Format settings, QPel : No\n Format settings, GMC : No warppoints\n Format settings, Matrix : Default (H.263)\n Codec ID : XVID\n Codec ID/Hint : XviD\n Duration : 1h 22mn\n Bit rate : 1 057 Kbps\n Width : 640 pixels\n Height : 480 pixels\n Display aspect ratio : 4:3\n Frame rate : 23.976 fps\n Color space : YUV\n Chroma subsampling : 4:2:0\n Bit depth : 8 bits\n Scan type : Progressive\n Compression mode : Lossy\n Bits/(Pixel*Frame) : 0.144\n Stream size : 624 MiB (89%)\n Writing library : XviD 1.2.1 (UTC 2008-12-04)\n \nAudio\n ID : 1\n Format : MPEG Audio\n Format version : Version 1\n Format profile : Layer 3\n Codec ID : 55\n Codec ID/Hint : MP3\n Duration : 1h 22mn\n Bit rate mode : Variable\n Bit rate : 120 Kbps\n Nominal bit rate : 128 Kbps\n Channel(s) : 2 channels\n Sampling rate : 48.0 KHz\n Compression mode : Lossy\n Stream size : 71.0 MiB (10%)\n Alignment : Aligned on interleaves\n Interleave, duration : 24 ms (0.58 video frame)\n Interleave, preload duration : 153 ms\n Writing library : LAME3.98r\n Encoding settings : -m s -V 4 -q 2 -lowpass 17 --abr 128\n ","torrent":{"xt":"urn:btih:364779f3e27bd380593c9cf4f6c724fe5c6cd51a","amp;dn":"Skew+2011+BRRip+XviD-F0RFUN","amp;tr":["udp%3A%2F%2Ftracker.openbittorrent.com%3A80","udp%3A%2F%2Fopen.demonii.com%3A1337","udp%3A%2F%2Ftracker.coppersurfer.tk%3A6969","udp%3A%2F%2Fexodus.desync.com%3A6969"],"infoHash":"364779f3e27bd380593c9cf4f6c724fe5c6cd51a","infoHashBuffer":{"type":"Buffer","data":[54,71,121,243,226,123,211,128,89,60,156,244,246,199,36,254,92,108,213,26]},"announce":[],"urlList":[]}}